<svg xmlns="http://www.w3.org/2000/svg" xmlns:xlink="http://www.w3.org/1999/xlink" version="1.1" id="Layer_1" x="0px" y="0px" width="100px" height="100px" viewBox="0 0 100 100" enable-background="new 0 0 100 100" xml:space="preserve">
<g>
	<path fill="#000000" d="M82.128,17.755C73.545,9.172,62.133,4.445,49.994,4.445c-12.138,0-23.55,4.727-32.133,13.31   C9.278,26.338,4.551,37.75,4.551,49.889c0,12.139,4.727,23.551,13.31,32.135c8.583,8.582,19.995,13.309,32.132,13.309   c12.14,0,23.551-4.727,32.135-13.311C99.846,64.304,99.846,35.474,82.128,17.755z M40.455,39.832   c2.606-2.607,6.072-4.042,9.759-4.042c3.688,0,7.154,1.436,9.762,4.043c5.381,5.382,5.381,14.139,0,19.521   c-2.608,2.607-6.074,4.043-9.762,4.043c-3.687,0-7.153-1.436-9.76-4.043C35.073,53.973,35.073,45.214,40.455,39.832z    M87.828,37.741l-18.969,6.187c-0.897-2.973-2.514-5.774-4.859-8.12c-2.057-2.057-4.5-3.576-7.157-4.535l6.722-18.768   c5.402,1.958,10.355,5.09,14.539,9.274C82.729,26.405,85.964,31.9,87.828,37.741z M14.147,67.107l18.551-9.002   c0.923,1.904,2.154,3.695,3.732,5.273c1.549,1.549,3.321,2.785,5.232,3.721l-9.111,18.523c-3.901-1.909-7.504-4.464-10.666-7.625   C18.663,74.775,16.067,71.096,14.147,67.107z"/>
	<circle fill="#000000" cx="50.282" cy="49.573" r="2.182"/>
</g>
</svg>