<?xml version="1.0" encoding="utf-8"?>
<!-- Generator: Adobe Illustrator 15.1.0, SVG Export Plug-In . SVG Version: 6.00 Build 0)  -->
<!DOCTYPE svg PUBLIC "-//W3C//DTD SVG 1.1//EN" "http://www.w3.org/Graphics/SVG/1.1/DTD/svg11.dtd">
<svg version="1.1" id="Layer_1" xmlns="http://www.w3.org/2000/svg" xmlns:xlink="http://www.w3.org/1999/xlink" x="0px" y="0px"
	 width="84.489px" height="99.999px" viewBox="-3.813 -7.635 84.489 99.999" enable-background="new -3.813 -7.635 84.489 99.999"
	 xml:space="preserve">
<path d="M63.993,46.679L38.896,90.14c-1.16,2.07-3.751,2.846-5.692,1.681L-1.587,71.644c-2.071-1.163-2.846-3.749-1.686-5.82
	l25.096-43.462L42.262,9.555l9.83,5.563c0.646-1.811,0.515-1.941,0.905-3.752c0.905-4.009,1.811-11.123,9.829-17.203
	c2.717-2.329,6.854-2.329,10.605-0.388c2.07,0.905,3.882,2.456,5.177,4.139c1.291,1.938,1.937,4.009,2.066,5.95
	c-0.13,2.456-1.291,5.82-6.723,8.406c-4.272,1.941-7.895,2.459-11.256,2.847c-2.977,0.388-5.302,0.647-7.243,1.941l9.574,5.562
	L63.993,46.679z M53.903,33.874c2.071-3.492,1.421-7.761-1.035-10.607L48.47,20.55c-3.882-1.293-8.278,0.388-10.479,4.14
	c-2.456,4.397-1.036,9.959,3.366,12.546C45.755,39.694,51.447,38.271,53.903,33.874z M55.069,11.626c0,0.647-0.13,1.035-0.261,1.553
	c-0.13,0.645,0,1.033-0.26,1.811c2.331-1.553,4.787-1.683,7.894-1.941c3.102-0.388,6.723-0.905,10.604-2.716
	c3.622-1.553,5.433-3.882,5.562-6.468c0-2.976-2.2-6.08-5.432-7.891c-0.131-0.127-0.391-0.257-0.646-0.388
	c-3.106-1.551-6.213-1.551-8.539,0.26C56.75,1.406,55.714,7.747,55.069,11.626z"/>
</svg>
