<svg xmlns="http://www.w3.org/2000/svg" xmlns:xlink="http://www.w3.org/1999/xlink" version="1.1" id="Your_Icon" x="0px" y="0px" width="100px" height="100px" viewBox="0 0 100 100" enable-background="new 0 0 100 100" xml:space="preserve">
<g>
	<g>
		<g>
			<g>
			</g>
		</g>
		<g>
		</g>
	</g>
</g>
<g>
	<path d="M50.489,5.03c-5.545,0-10.058,4.511-10.058,10.057s4.512,10.059,10.058,10.059c5.547,0,10.058-4.513,10.058-10.059   S56.036,5.03,50.489,5.03z"/>
	<path d="M65.216,59.285c0.839,3.503,9.153,5.193,16.49,6.686c2.944,0.6,5.488,1.117,7.024,1.665   c0.615,0.22,1.217,0.331,1.793,0.331c2.335,0,3.73-1.803,3.855-3.499c0.104-1.421-0.668-3.213-3.186-3.587   c-4.896-0.725-12.808-3.803-16.849-6.111c-3.688-2.109-4.627-11.376-4.827-14.167c-0.033-0.471-0.035-0.954-0.037-1.463   c-0.011-2.25-0.024-4.801-2.894-7.191c-1.487-1.24-3.103-1.679-4.665-2.103c-2.076-0.565-4.223-1.147-6.295-3.634   c-0.097-0.117-0.257-0.163-0.399-0.117c-1.506,0.483-3.062,0.729-4.628,0.729c-2.354,0-4.023-0.562-4.376-0.692   c-0.022-0.014-0.044-0.026-0.068-0.038c-0.151-0.062-0.325-0.019-0.428,0.107c-2.072,2.486-4.219,3.069-6.295,3.633   c-1.562,0.424-3.177,0.864-4.665,2.103c-2.87,2.39-2.883,4.941-2.894,7.192c-0.002,0.51-0.004,0.992-0.039,1.463   c-0.175,2.439-2.068,12.23-5.808,14.367c-4.041,2.308-11.953,5.386-16.848,6.111c-2.627,0.389-3.685,2.447-3.555,4.195   c0.112,1.536,1.206,3.188,3.337,3.188c0.536,0,1.11-0.107,1.705-0.32c1.519-0.542,4.125-1.085,7.143-1.712   c7.353-1.529,16.503-3.433,17.347-6.948c0.896-3.727,3.281-9.283,4.155-11.256c0.87,1.929,2.955,7.515,0.76,12.781l-0.46,1.11   c-1.72,4.155-2.133,5.034-3.539,5.034c-0.596,0-1.37-0.156-2.48-0.396c-1.437-0.311-4.317-0.51-7.341-0.51   c-4.071,0-13.897,0.375-17.204,3.861c-0.78,0.823-1.149,1.77-1.093,2.815c0.407,7.73,6.43,9.31,8.022,9.31   c0.725,0,2.091,0.944,3.411,1.856c1.593,1.103,3.098,2.143,4.194,2.143c0.209,0,0.4-0.038,0.569-0.113   c0.226-0.101,0.49-0.175,0.789-0.221c-1.099,0.328-2.168,0.904-2.774,1.909c-0.81,1.344-0.618,3.168,0.57,5.421   c0.639,1.213,1.602,1.827,2.861,1.827c1.671,0,3.526-1.062,5.164-1.999c1.039-0.594,2.021-1.155,2.524-1.155   c0.044,0,0.081,0.006,0.111,0.015c0.889,0.296,4.378,0.4,7.096,0.4c3.865,0,8.759-0.197,10.077-0.754l0.621,0.008   c1.67,0.72,8.473,0.757,9.842,0.757c2.641,0,6.04-0.105,6.928-0.401c0.03-0.009,0.068-0.015,0.112-0.015   c0.503,0,1.484,0.562,2.524,1.157c1.637,0.936,3.491,1.998,5.163,1.998l0,0c1.259,0,2.222-0.615,2.86-1.828   c1.189-2.253,1.38-4.077,0.569-5.421c-0.604-1.004-1.674-1.58-2.772-1.909c0.299,0.047,0.562,0.121,0.789,0.221   c0.169,0.076,0.36,0.113,0.568,0.113c1.097,0,2.602-1.04,4.192-2.141c1.323-0.914,2.688-1.858,3.412-1.858   c1.593,0,7.616-1.579,8.024-9.308c0.055-1.048-0.314-1.994-1.094-2.817C89,66.626,79.175,66.249,75.104,66.249   c-3.023,0-5.904,0.2-7.341,0.51c-1.112,0.239-1.886,0.396-2.481,0.396c-1.406,0-1.819-0.88-3.539-5.037l-0.46-1.108   c-2.152-5.166-0.188-10.638,0.71-12.666C62.665,50.404,64.341,55.646,65.216,59.285z"/>
</g>
</svg>